HIERARCHY
ROOT Hips
{
	OFFSET 0.000000 0.000000 0.000000
	CHANNELS 6 Xposition Yposition Zposition Xrotation Yrotation Zrotation
	JOINT LeftUpLeg_virtual
	{
		OFFSET 0.000000 0.000000 0.000000
		CHANNELS 3 Xrotation Yrotation Zrotation
		JOINT LeftUpLeg
		{
			OFFSET 15.427100 -6.655098 0.678600
			CHANNELS 3 Xrotation Yrotation Zrotation
			JOINT LeftLeg
			{
				OFFSET 4.081073 -39.591068 13.024000
				CHANNELS 3 Xrotation Yrotation Zrotation
				JOINT LeftFoot
				{
					OFFSET -4.081074 -37.707932 -15.979700
					CHANNELS 3 Xrotation Yrotation Zrotation
					JOINT LeftToeBase
					{
						OFFSET 5.346399 -15.068900 20.645000
						CHANNELS 3 Xrotation Yrotation Zrotation
						JOINT LeftToe_End
						{
							OFFSET 2.754700 0.931300 11.300900
							CHANNELS 3 Xrotation Yrotation Zrotation
							End Site
							{
								OFFSET 0 0 0
							}
						}
					}
				}
			}
		}
	}
	JOINT RightUpLeg_virtual
	{
		OFFSET 0.000000 0.000000 0.000000
		CHANNELS 3 Xrotation Yrotation Zrotation
		JOINT RightUpLeg
		{
			OFFSET -15.569500 -6.655098 0.678600
			CHANNELS 3 Xrotation Yrotation Zrotation
			JOINT RightLeg
			{
				OFFSET -4.081825 -39.591045 13.023800
				CHANNELS 3 Xrotation Yrotation Zrotation
				JOINT RightFoot
				{
					OFFSET 4.081824 -37.707954 -15.979600
					CHANNELS 3 Xrotation Yrotation Zrotation
					JOINT RightToeBase
					{
						OFFSET -5.346400 -15.068900 20.645000
						CHANNELS 3 Xrotation Yrotation Zrotation
						JOINT RightToe_End
						{
							OFFSET -2.754700 0.931300 11.300900
							CHANNELS 3 Xrotation Yrotation Zrotation
							End Site
							{
								OFFSET 0 0 0
							}
						}
					}
				}
			}
		}
	}
	JOINT Spine_virtual
	{
		OFFSET 0.000000 0.000000 0.000000
		CHANNELS 3 Xrotation Yrotation Zrotation
		JOINT Spine
		{
			OFFSET -0.279200 12.230698 -2.892100
			CHANNELS 3 Xrotation Yrotation Zrotation
			JOINT Spine1
			{
				OFFSET -0.232667 10.192268 -1.242267
				CHANNELS 3 Xrotation Yrotation Zrotation
				JOINT Spine1_split
				{
					OFFSET -0.232667 10.192268 -1.242267
					CHANNELS 3 Xrotation Yrotation Zrotation
					JOINT Spine2
					{
						OFFSET -0.232667 10.192268 -1.242267
						CHANNELS 3 Xrotation Yrotation Zrotation
						JOINT Neck_virtual
						{
							OFFSET 0.000000 0.000000 0.000000
							CHANNELS 3 Xrotation Yrotation Zrotation
							JOINT Neck
							{
								OFFSET -0.418800 17.814194 8.416900
								CHANNELS 3 Xrotation Yrotation Zrotation
								JOINT Head
								{
									OFFSET 0.000000 7.031097 3.806800
									CHANNELS 3 Xrotation Yrotation Zrotation
									JOINT HeadTop_End
									{
										OFFSET 0.000000 24.646606 12.978600
										CHANNELS 3 Xrotation Yrotation Zrotation
										End Site
										{
											OFFSET 0 0 0
										}
									}
								}
							}
						}
						JOINT LeftShoulder_virtual
						{
							OFFSET 0.000000 0.000000 0.000000
							CHANNELS 3 Xrotation Yrotation Zrotation
							JOINT LeftShoulder
							{
								OFFSET 8.476499 7.247704 -3.868750
								CHANNELS 3 Xrotation Yrotation Zrotation
								JOINT LeftShoulder_split
								{
									OFFSET 8.476499 7.247704 -3.868750
									CHANNELS 3 Xrotation Yrotation Zrotation
									JOINT LeftArm
									{
										OFFSET 9.308998 -2.777710 0.208600
										CHANNELS 3 Xrotation Yrotation Zrotation
										JOINT LeftForeArm
										{
											OFFSET 29.972298 0.000000 0.000000
											CHANNELS 3 Xrotation Yrotation Zrotation
											JOINT LeftHand
											{
												OFFSET 26.026505 0.000000 0.000000
												CHANNELS 3 Xrotation Yrotation Zrotation
												End Site
												{
													OFFSET 0 0 0
												}
											}
										}
									}
								}
							}
						}
						JOINT RightShoulder_virtual
						{
							OFFSET 0.000000 0.000000 0.000000
							CHANNELS 3 Xrotation Yrotation Zrotation
							JOINT RightShoulder
							{
								OFFSET -7.570500 7.247704 -3.868750
								CHANNELS 3 Xrotation Yrotation Zrotation
								JOINT RightShoulder_split
								{
									OFFSET -7.570500 7.247704 -3.868750
									CHANNELS 3 Xrotation Yrotation Zrotation
									JOINT RightArm
									{
										OFFSET -9.308998 -2.777710 0.208500
										CHANNELS 3 Xrotation Yrotation Zrotation
										JOINT RightForeArm
										{
											OFFSET -29.972300 0.000000 0.000000
											CHANNELS 3 Xrotation Yrotation Zrotation
											JOINT RightHand
											{
												OFFSET -26.026505 0.000000 0.000000
												CHANNELS 3 Xrotation Yrotation Zrotation
												End Site
												{
													OFFSET 0 0 0
												}
											}
										}
									}
								}
							}
						}
					}
				}
			}
		}
	}
}
MOTION
Frames: 4
Frame Time: 0.03333333
2.675972 80.530785 -2.896534 0.000000 0.000000 0.000000 8.330241 -67.307963 9.926914 -29.219973 15.976765 27.870187 30.714647 -7.169122 -0.080864 -10.061885 -3.972569 -18.351608 -0.315977 -0.517741 -0.300566 0.000000 0.000000 0.000000 6.268715 -66.834719 8.806650 -25.404144 -21.534352 -39.244874 30.697913 8.698685 -0.752147 -15.575068 -0.945042 22.619205 5.838662 0.807861 1.092299 0.000000 0.000000 0.000000 8.067954 -64.983936 9.509623 12.249579 -0.396584 -4.914276 7.364535 1.709762 -0.992977 0.559099 3.875168 -0.668687 0.000000 0.000000 0.000000 9.743696 1.797354 -2.118916 7.076758 4.941071 4.782857 -24.614258 52.820404 18.731254 0.000000 0.000000 0.000000 8.996843 1.133463 -1.058069 5.479248 -1.577754 -12.616678 -2.837657 -4.525582 2.502605 -34.197548 14.034195 -27.503104 6.717498 -53.771067 4.192920 0.000000 0.000000 0.000000 7.762725 1.694727 -0.598366 -7.962641 7.863299 15.025287 3.211976 0.586433 -1.742416 17.390705 -6.519948 33.003102 -19.797513 39.525721 20.095911 0.000000 0.000000 0.000000 
2.455442 80.768944 -2.534359 0.000000 0.000000 0.000000 7.890954 -67.218747 9.262709 -29.394791 15.605678 28.198663 31.161860 -6.906381 0.046392 -10.042415 -4.046415 -18.547092 -0.285540 -0.505344 -0.312367 0.000000 0.000000 0.000000 6.130766 -67.152023 8.443597 -24.522882 -21.193570 -38.582366 29.558098 8.731423 -0.731494 -14.931644 -0.596256 23.329894 4.194668 0.773655 1.115490 0.000000 0.000000 0.000000 7.878803 -65.261638 9.113199 12.283400 -0.412203 -4.561978 7.382357 1.714707 -1.450484 0.099530 3.197669 -0.531715 0.000000 0.000000 0.000000 8.809717 1.818759 -2.309172 7.478651 4.963862 4.607031 -24.276173 54.025137 17.925738 0.000000 0.000000 0.000000 8.662527 1.161810 -1.532075 5.394886 -2.126291 -12.922710 -3.105942 -2.804252 2.114141 -33.234317 16.500521 -26.885971 7.406607 -51.494480 4.680973 0.000000 0.000000 0.000000 7.330508 1.863757 -0.792925 -9.197256 6.495063 15.123987 3.940062 -0.296110 -0.434563 15.283190 -5.536337 31.415643 -18.656394 38.907790 19.780508 0.000000 0.000000 0.000000 
2.140048 81.088745 -2.088310 0.000000 0.000000 0.000000 6.707751 -67.733927 7.770179 -29.443624 15.053097 28.837704 31.911173 -6.320928 0.186755 -10.015310 -3.918670 -18.595709 -0.362492 -0.464867 -0.331422 0.000000 0.000000 0.000000 5.395477 -67.955895 7.333639 -23.277783 -20.854905 -37.856890 28.106722 8.927245 -0.507985 -14.302870 -0.083588 23.886032 3.142953 0.758821 1.158582 0.000000 0.000000 0.000000 7.062640 -65.722717 7.986418 12.034842 -0.451424 -4.120934 6.766214 1.403262 -1.564499 0.278364 2.744192 -0.238865 0.000000 0.000000 0.000000 7.479907 1.383124 -2.046311 7.545530 4.931838 3.753956 -22.028893 56.294313 14.560363 0.000000 0.000000 0.000000 7.581486 0.829466 -1.622948 4.928071 -3.414170 -14.523055 -3.934409 -1.771619 2.775503 -28.261151 20.588722 -26.293845 6.605001 -48.915619 4.171149 0.000000 0.000000 0.000000 6.383481 1.606637 -0.694217 -11.304866 3.957111 14.873616 4.569677 -1.150732 0.128399 13.472088 -9.936165 32.628654 -17.550624 40.945464 19.502960 0.000000 0.000000 0.000000 
1.778315 81.289467 -1.728489 0.000000 0.000000 0.000000 4.798488 -68.573112 5.559882 -29.477160 14.413919 29.616322 32.994875 -5.512029 0.352009 -10.071919 -3.692443 -18.490220 -0.475333 -0.403115 -0.364672 0.000000 0.000000 0.000000 3.842843 -68.801821 5.390115 -22.045206 -20.617491 -37.327199 26.901725 9.154256 -0.135479 -13.919521 0.385133 24.223599 2.800630 0.772645 1.177741 0.000000 0.000000 0.000000 5.778213 -66.207687 6.305765 11.528437 -0.540675 -3.658302 5.647458 0.883432 -1.366922 0.364025 1.829608 0.235334 0.000000 0.000000 0.000000 5.985026 0.611497 -1.440183 7.179117 4.918043 2.455248 -17.287183 58.891284 8.602684 0.000000 0.000000 0.000000 6.073014 0.247987 -1.373032 4.157640 -4.980024 -17.020432 -4.510414 -1.506931 4.358995 -20.466030 24.976110 -26.160159 5.196212 -47.778276 3.385450 0.000000 0.000000 0.000000 5.142704 1.029770 -0.346646 -14.050239 0.927415 13.481862 4.241107 -1.061951 -0.251195 12.471638 -19.612912 36.794451 -16.928926 46.895092 19.344248 0.000000 0.000000 0.000000 
